<svg width="431" height="161" viewBox="0 0 431 161" fill="none" xmlns="http://www.w3.org/2000/svg">
<path d="M54.9993 3.56716C73.7754 12.7274 83.0773 44.7626 83.3087 45.2671C83.4594 45.3004 83.6112 45.3307 83.7649 45.3537C89.1778 30.7192 99.506 12.3522 113.229 6.23559C125.521 0.80103 143.759 4.14101 156.485 8.87057C156.656 8.93217 156.827 9.00623 156.979 9.11472C148.468 9.03115 144.754 10.2794 141.316 11.8259C140.415 11.4805 139.534 11.0808 138.632 10.7406C138.136 11.3094 137.767 11.9971 137.262 12.5544C125.106 15.2044 122.467 15.2853 113.122 23.8019C112.253 23.6245 111.434 23.2091 110.577 22.9629C110.333 24.0451 110.232 25.1576 110.018 26.247C100.051 28.5786 92.4662 35.5363 85.5886 44.5647C85.3793 44.8392 85.1671 45.1126 84.9895 45.4121C85.7189 44.9142 103.601 28.4751 121.647 25.5049C128.728 24.3067 135.835 25.2011 145.575 30.9805C155.676 37.0155 164.155 46.0257 167 49.5779C158.86 45.2844 157.139 44.7659 151.993 44.1628C151.347 43.4125 150.751 42.6141 150.114 41.8576C147.108 43.1104 149.744 43.1269 142.517 41.0854C135.796 39.1155 132.824 37.9714 121.778 40.6084C121.069 40.0408 120.559 39.2236 119.887 38.5996C119.19 39.4345 118.611 40.3736 117.908 41.2022C102.128 36.4862 89.1258 45.9677 84.7278 47.4521C84.6266 47.6066 84.6812 47.8132 84.6683 47.9896C84.7139 49.2971 84.5007 50.5901 84.3202 51.8779C83.7047 70.3317 69.6089 92.9613 68.3234 96.1065C62.2384 110.718 65.9622 130.634 70.6143 145.743C70.8474 146.441 71.0259 147.161 71.3045 147.842C66.7388 151.817 56.2381 156.061 53.6723 156.941C49.9544 92.7012 66.7398 94.6236 80.144 51.3573C80.7125 49.6981 80.2779 49.6035 81.576 46.6539C71.8354 40.4968 60.6635 36.0519 49.6597 38.4724C49.0488 37.5614 48.5043 36.6012 47.8904 35.6934C47.2081 36.2924 46.5833 36.9602 45.9029 37.5624C34.4882 33.8099 31.9858 34.7109 19.4224 37.5061C18.7807 37.168 18.1678 36.7715 17.534 36.4188C16.7902 37.0835 16.1714 37.9059 15.4246 38.5653C11.6692 38.5922 7.87121 39.0713 0 42.7657C8.35988 34.2021 21.3559 24.8413 33.2869 22.2063C50.4331 18.3804 69.2845 32.581 81.9826 45.3975C81.1465 43.9839 77.4047 38.4685 72.675 33.6C67.9308 28.6315 62.641 25.556 57.7542 24.1463C57.6084 23.0475 57.529 21.9392 57.4041 20.8372C56.5373 20.9822 55.6973 21.3193 54.8335 21.5061C54.5727 21.3286 54.3843 21.0573 54.1551 20.8392C46.1793 12.6537 43.451 12.1871 31.341 8.64613C30.8997 8.04296 30.5466 7.37298 30.1161 6.76147C29.1859 7.02338 28.2824 7.38348 27.3571 7.66412C23.9173 5.84125 20.5854 4.48168 11.871 3.91667C13.3583 3.17596 39.0651 -4.29069 54.9993 3.56716Z" fill="#3D441E"/>
<path d="M114 113V42.2H117.6V113H114ZM128.4 113V42.2H132V113H128.4ZM142.8 113V42.2H150V113H142.8ZM135.36 151.76C133.28 151.76 131.44 151.24 129.84 150.2C128.16 149.16 126.84 147.6 125.88 145.52C124.92 143.36 124.44 140.68 124.44 137.48C124.44 134.12 124.96 131.36 126 129.2C127.04 127.12 128.36 125.6 129.96 124.64C131.56 123.76 133.28 123.32 135.12 123.32C137.12 123.32 138.84 123.8 140.28 124.76C141.72 125.72 142.8 127.04 143.52 128.72L140.88 130.04L140.52 130.16L140.4 129.92V129.56C140.4 129.24 140.2 128.8 139.8 128.24C139.16 127.36 138.44 126.72 137.64 126.32C136.84 125.92 136 125.72 135.12 125.72C132.72 125.72 130.84 126.76 129.48 128.84C128.2 130.84 127.56 133.68 127.56 137.36C127.56 139.6 127.88 141.64 128.52 143.48C129.24 145.24 130.16 146.6 131.28 147.56C132.48 148.52 133.8 149 135.24 149C136.36 149 137.4 148.72 138.36 148.16C139.4 147.52 140.24 146.68 140.88 145.64L143.16 147.2C142.2 148.72 141.12 149.84 139.92 150.56C138.64 151.36 137.12 151.76 135.36 151.76ZM153.609 113V42.2H157.209V113H153.609ZM160.809 113V42.2H164.409V113H160.809ZM175.209 113V42.2H182.409V113H175.209ZM177.849 143.12H168.849L166.089 151.28H162.969L173.169 122.96H173.529L183.849 151.28H180.609L177.849 143.12ZM177.009 140.72L173.409 130.16L169.689 140.72H177.009ZM193.219 113V42.2H200.419V113H193.219ZM211.219 113V42.2H214.819V113H211.219ZM218.419 113V42.2H229.219V113H218.419ZM204.379 123.44H212.539C215.739 123.44 218.059 124.16 219.499 125.6C221.019 126.96 221.779 128.92 221.779 131.48C221.779 133.08 221.259 134.6 220.219 136.04C219.179 137.48 217.819 138.44 216.139 138.92L222.619 151.28H219.139L212.899 139.04H207.499V151.28H204.379V123.44ZM212.899 136.28C214.819 136.28 216.259 135.84 217.219 134.96C218.099 134.16 218.539 133 218.539 131.48C218.539 129.96 218.099 128.72 217.219 127.76C216.259 126.88 214.819 126.44 212.899 126.44H207.499V136.28H212.899ZM232.828 113V42.2H236.428V113H232.828ZM240.028 113V42.2H243.628V113H240.028ZM254.428 113V42.2H261.628V113H254.428ZM257.068 143.12H248.068L245.308 151.28H242.188L252.388 122.96H252.748L263.068 151.28H259.828L257.068 143.12ZM256.228 140.72L252.628 130.16L248.908 140.72H256.228ZM272.438 113V42.2H276.038V113H272.438ZM279.638 113V42.2H290.438V113H279.638ZM294.038 113V42.2H301.238V113H294.038ZM282.878 123.44H285.398L292.238 137.12L299.198 123.44H301.598V151.28H298.598V130.28L292.598 141.56H291.398L285.758 130.4V151.28H282.878V123.44ZM312.047 113V42.2H315.647V113H312.047ZM326.447 113V42.2H337.247V113H326.447ZM340.847 113V42.2H348.047V113H340.847ZM331.847 151.76C328.647 151.76 326.207 150.52 324.527 148.04C322.767 145.56 321.887 142.04 321.887 137.48C321.887 133.08 322.767 129.6 324.527 127.04C326.287 124.56 328.727 123.32 331.847 123.32C334.967 123.32 337.407 124.56 339.167 127.04C340.927 129.6 341.807 133.08 341.807 137.48C341.807 142.04 340.927 145.56 339.167 148.04C337.487 150.52 335.047 151.76 331.847 151.76ZM331.847 149C334.007 149 335.647 148.04 336.767 146.12C337.967 144.12 338.567 141.24 338.567 137.48C338.567 133.96 337.967 131.16 336.767 129.08C335.567 127.08 333.927 126.08 331.847 126.08C329.767 126.08 328.127 127.08 326.927 129.08C325.727 131.16 325.127 133.96 325.127 137.48C325.127 141.24 325.687 144.12 326.807 146.12C328.007 148.04 329.687 149 331.847 149ZM351.656 113V42.2H355.256V113H351.656ZM358.856 113V42.2H362.456V113H358.856ZM373.256 113V42.2H380.456V113H373.256ZM375.896 143.12H366.896L364.136 151.28H361.016L371.216 122.96H371.576L381.896 151.28H378.656L375.896 143.12ZM375.056 140.72L371.456 130.16L367.736 140.72H375.056ZM391.266 113V42.2H394.866V113H391.266ZM398.466 113V42.2H409.266V113H398.466ZM420.066 113V42.2H427.266V113H420.066ZM402.186 123.44H405.186L416.826 144.08V123.44H420.306V123.8C420.066 123.96 419.946 124.16 419.946 124.4C419.866 124.56 419.826 124.92 419.826 125.48V151.28H417.426L405.066 129.44V151.28H402.186V123.44Z" fill="#6D712E"/>
</svg>
